# xmcd CD database file
#
# Track frame offsets:
#	150
#	13342
#	36225
#
# Disc length: 798 seconds
#
# Revision: 0
# Processed by: cddbd v1.5.1PL0 Copyright (c) Steve Scherf et al.
# Submitted via: CDex 1.50beta9
#
DISCID=20031c03
DTITLE=THE HIGH-LOWS - スパイダー・ホップ
DYEAR=2004
DGENRE=Rock
TTITLE0=スパイダー・ホップ(GLINDIN' MODE)
TTITLE1=全滅マーチ
TTITLE2=東大出ててもバカはバカ
EXTD=YEAR: 2004
EXTT0=
EXTT1=
EXTT2=
PLAYORDER=
